<svg width="160" height="73" viewBox="0 0 160 73" fill="none" xmlns="http://www.w3.org/2000/svg">
<path d="M158.906 53.8358C118.278 49.9414 77.2757 67.8011 36.5469 69.7675C36.5507 69.7951 36.5577 69.8222 36.5617 69.85C48.0937 71.8222 60.2058 72.8789 72.7027 72.8789C105.202 72.8789 135.118 65.7679 158.906 53.8358Z" fill="#FFCD00"/>
<path d="M2.6618 37.5524C3.41557 38.2845 5.50609 39.9894 8.62569 40.0039C8.70942 40.0045 8.81536 40.0022 8.94052 39.9955C9.69831 39.956 12.3073 39.6844 14.0615 37.8566C15.7269 36.0849 15.7625 33.5396 15.7625 33.5396C15.7625 33.5396 14.5945 34.7103 12.8726 34.787C10.5136 34.9104 8.59458 33.0866 8.59458 30.7212C8.59458 28.3557 10.5136 26.3307 12.8726 26.2073C15.2316 26.0835 17.1507 27.9075 17.1507 30.2728L17.1404 56.0968C17.1322 57.3235 16.8505 58.5048 16.4329 59.0584C19.5887 59.3867 22.7601 59.529 25.94 59.6549C25.5227 59.0409 25.2411 57.8192 25.2327 56.5912C25.2318 56.5912 25.2191 40.9822 25.2178 32.0771C27.8081 33.1111 30.3268 33.5794 32.9076 33.5078C33.8794 33.4737 36.4988 33.1704 37.9833 32.0792C39.6356 30.8953 40.694 29.1881 40.8874 27.396C41.2214 23.5604 38.9358 21.9308 38.9358 21.9308C38.9358 21.9308 36.799 24.8279 32.2738 25.005C29.3258 25.1593 26.7381 24.329 23.4621 23.2775C23.4621 23.2775 18.6058 21.7254 17.4178 21.4475C15.2483 20.9398 13.4866 20.5414 11.1489 20.6654C9.53277 20.7724 7.7555 21.0155 5.71201 22.0603C4.9474 22.4514 2.91649 23.4897 1.4593 25.8647C0.136363 28.0216 -0.0216624 30.0997 0.00211132 31.1468C0.0589236 33.6672 1.00358 35.9423 2.6618 37.5524ZM39.5732 41.2035C40.8211 41.1196 41.8373 41.6073 42.959 42.8372V44.9459C42.9655 45.549 42.9756 47.1674 42.9597 47.3998C42.802 49.7344 41.7238 54.067 39.0253 54.199C36.9448 54.3007 36.0847 51.2711 35.9505 49.464C35.7825 47.2112 35.743 44.6923 37.147 42.66C37.7589 41.774 38.6249 41.2671 39.5732 41.2035ZM28.2726 46.0026C27.6966 49.2166 28.0461 52.9001 29.6244 55.7436C29.6228 55.7446 29.6221 55.745 29.6209 55.7457C30.432 57.2161 31.5154 58.3484 32.8457 59.0824C34.4454 59.9645 36.0358 60.0333 36.8416 59.9935C36.8866 59.9914 38.8185 60.0204 40.6166 58.7971C41.6626 58.0849 42.4713 57.131 42.9543 56.3889V56.5534C42.9536 57.5769 43.1812 58.4277 43.7815 58.8626C44.2966 59.236 45.03 59.3797 45.9618 59.282C46.3199 59.2442 46.7133 59.1705 47.1311 59.0614C48.0802 58.8142 48.9463 58.5298 49.8295 58.1423C50.5801 57.8128 51.1781 57.511 51.4975 57.3444C50.7731 56.2987 50.7904 54.4084 50.7904 54.4084C50.7937 48.0991 50.797 41.7899 50.8003 35.4808C48.9091 35.717 47.0186 35.9488 45.1245 36.1358C44.486 36.1998 43.9061 36.6067 43.6119 37.2018C43.3536 37.794 43.2242 38.0901 42.9657 38.6815C41.4585 36.9931 39.3493 36.1017 37.0575 36.2066C31.6605 36.4534 29.1344 41.1942 28.2726 46.0026ZM53.4385 57.861C56.5517 57.4041 59.6569 56.9004 62.7608 56.3566C62.3432 55.8303 62.0616 54.6688 62.0534 53.4427C62.0521 53.4424 62.0518 53.4424 62.0506 53.4424V39.9522C62.8659 39.1635 63.7347 38.6231 64.3888 38.5029C65.6434 38.2725 66.0024 39.4855 66.0881 40.0081C66.1218 40.2139 66.1522 40.9093 66.1519 40.9876C66.1545 44.8926 66.1568 48.8418 66.1594 52.7467C66.1494 53.9722 65.8683 55.2317 65.4521 55.9088C68.5794 55.3148 71.7029 54.7472 74.8227 54.1009C74.4061 53.5885 74.125 52.4409 74.1154 51.2192C74.1149 47.6949 74.1128 44.0699 74.1123 40.5457C74.1136 39.4612 74.0441 38.4821 73.907 37.6051C74.7008 36.83 75.5369 36.2917 76.1716 36.1577C77.4261 35.8926 77.7856 37.0978 77.8711 37.6182C77.9049 37.8234 77.9353 38.5177 77.9349 38.5964C77.9381 42.5012 77.9416 46.5396 77.9451 50.4443C77.9351 51.67 77.6542 52.9363 77.238 53.624C80.3616 52.955 83.4831 52.3325 86.6038 51.6454C86.1876 51.1379 85.9063 49.9938 85.8967 48.7721C85.8963 45.2478 85.8955 41.53 85.8953 38.0059C85.7769 35.3672 85.6263 32.3969 83.5462 30.6287C82.4037 29.6576 80.2188 29.554 78.802 29.9097C77.3967 30.2626 76.0421 31.0213 74.601 32.2063C74.3121 32.4439 73.0148 33.5773 72.5642 33.9736C72.3245 33.6506 72.0508 33.3716 71.7632 33.1347C70.6035 32.1799 68.4438 32.0056 67.0189 32.322C65.1137 32.7452 63.4104 34.0682 61.8588 35.3001C61.3185 33.9897 59.8102 33.6179 58.4904 33.8332C56.745 34.2238 54.9723 34.9366 53.4385 35.9066C53.4385 35.9066 53.7623 36.3426 53.9736 37.2415C54.1337 37.9216 54.144 38.8397 54.144 38.8397C54.139 44.2928 54.1337 49.7459 54.1288 55.199C54.0617 56.2638 53.8016 57.2864 53.4385 57.861ZM97.0997 37.5135C97.2401 35.0901 98.2769 30.7019 101.034 30.1751C103.088 29.7826 104.029 32.7561 104.109 34.4374C104.224 36.8392 104.262 39.2778 102.913 41.4305C102.295 42.4156 101.435 43.0499 100.486 43.2499C99.2388 43.5132 98.2222 43.1623 97.1004 42.0761C97.1004 42.0761 97.0863 37.7461 97.0997 37.5135ZM89.2056 48.0507C89.2049 48.051 89.2046 48.0512 89.2042 48.0513C89.196 49.2806 88.9142 50.5539 88.4968 51.247C91.3643 50.6126 94.232 50.041 97.1023 49.4217C97.1016 48.348 97.1013 47.5362 97.1006 46.4625C97.5838 47.0576 98.3921 47.7671 99.4372 48.1793C101.235 48.8883 103.167 48.3615 103.212 48.3524C104.018 48.1863 105.614 47.6926 107.208 46.4914C108.486 45.5284 109.756 43.9567 110.433 42.5C110.432 42.4993 110.431 42.499 110.429 42.4983C112.034 39.4606 112.336 35.654 111.781 32.5149C110.977 27.9637 108.411 23.6191 102.996 24.6206C100.629 25.0585 98.4665 26.771 97.0917 28.7514C97.0899 25.377 97.0882 22.0023 97.0864 18.628C97.0871 17.6047 96.7851 16.9023 96.189 16.5408C95.677 16.2304 94.948 16.1749 94.0224 16.3774C93.6667 16.4552 93.2755 16.5723 92.8608 16.7258C91.348 17.2851 90.0545 17.9232 88.5356 18.8582C88.5356 18.8582 88.8319 19.1973 89.0479 20.0939C89.2636 20.9909 89.2338 21.7595 89.2338 21.7595C89.2243 30.4523 89.215 39.3582 89.2056 48.0507ZM122.858 27.5231C123.473 26.5791 124.336 26.0024 125.284 25.8774C126.532 25.7131 127.548 26.1569 128.67 27.3565V29.465C128.676 30.0682 128.687 31.6861 128.671 31.9189C128.507 34.344 127.453 38.5688 124.737 38.91C122.663 39.1703 121.791 36.1882 121.661 34.4449C121.49 32.1436 121.487 29.629 122.858 27.5231ZM115.332 41.6123C116.143 42.9405 117.226 43.8934 118.557 44.4419C120.157 45.1013 121.747 45.0013 122.553 44.8852C122.598 44.8786 124.53 44.7281 126.328 43.4095C127.374 42.6425 128.183 41.6636 128.665 40.9084V41.0731C128.665 42.0964 128.892 42.9395 129.493 43.3639C130.008 43.7278 130.741 43.8623 131.673 43.7705C132.031 43.7357 132.425 43.6661 132.842 43.5655C133.791 43.3368 134.658 43.083 135.541 42.7391C136.291 42.447 136.889 42.1845 137.209 42.0394C136.484 40.9447 136.502 39.0581 136.502 39.0581C136.505 32.7491 136.508 26.4403 136.512 20.1313C134.62 20.2598 132.725 20.4247 130.835 20.6229C130.197 20.6885 129.617 21.1052 129.323 21.7058C129.065 22.3033 128.935 22.6024 128.677 23.2006C127.164 21.5461 125.051 20.779 122.769 21.0779C117.472 21.7717 114.49 27.2769 113.983 32.1156C113.653 35.2768 113.558 38.8584 115.336 41.6095C115.334 41.6108 115.333 41.6113 115.332 41.6123ZM139.326 33.5633C139.445 36.2449 139.716 39.4306 141.675 41.3548C142.778 42.4383 144.831 43.1096 146.42 43.0173C148.314 43.0533 149.979 42.0189 151.58 41.0858C152.12 42.5121 153.628 43.2144 154.948 43.3043H154.948C155.596 43.3485 157.021 43.1131 157.296 43.0678C158.282 42.9054 159.184 42.6947 160 42.4607C160 42.4607 159.676 41.9422 159.465 40.9898C159.305 40.2691 159.294 39.3484 159.294 39.3484C159.3 33.0428 159.306 26.7368 159.312 20.4308C156.45 20.1174 153.566 19.9354 150.678 19.8368C151.095 20.4512 151.377 21.6733 151.385 22.901C151.386 22.9013 151.387 22.9017 151.388 22.9019V36.3922C150.573 37.0063 149.704 37.3661 149.05 37.3535C147.795 37.3296 147.443 36.0556 147.35 35.5103C147.318 35.2953 147.286 34.5966 147.287 34.5183C147.282 29.6031 147.278 24.688 147.274 19.7732C144.392 19.7517 141.504 19.842 138.618 19.9994C139.034 20.5754 139.315 21.767 139.325 22.9903C139.325 26.5148 139.326 30.0391 139.326 33.5633ZM146.343 17.1656C147.335 17.7097 148.934 17.3425 148.934 17.3425C149.731 17.1446 151.319 16.7455 152.524 15.3988C153.188 14.6571 153.279 14.1328 153.302 13.9154C153.318 13.7712 153.387 13.0015 152.877 12.2923C152.76 12.1294 152.451 11.7429 151.948 11.5282C151.452 11.3171 151.024 11.3676 150.742 11.41C150.415 11.4595 150.051 11.6119 149.691 11.8637C149.02 12.3334 148.546 13.0197 148.121 13.8392C147.768 14.4349 147.403 15.0522 146.825 15.4817C146.131 15.9611 145.303 15.8398 145.303 15.8398C145.303 15.8398 145.654 16.8175 146.343 17.1656Z" fill="white"/>
<path d="M63.9141 6.28757C63.9141 4.59387 66.4493 0.876248 66.9155 0.876248C67.5071 0.876248 67.7004 1.13776 67.7004 1.41046C67.7004 1.59243 67.1882 2.16073 66.6885 2.84265C66.0518 3.69588 64.6416 5.57139 64.6416 7.31107C64.6416 7.42487 64.5736 7.45878 64.4714 7.45878C64.2779 7.45878 63.9141 6.95866 63.9141 6.28757ZM67.3473 0.705462C64.6532 0.705462 63.5052 2.46752 63.5052 3.43402C63.5052 3.44556 63.4706 3.45692 63.4257 3.45692C63.1411 3.45692 62.6406 2.95663 62.6406 2.51349C62.6406 1.26257 64.4941 0.000813484 67.2793 0.000813484C73.9304 0.000813484 69.7693 8.78906 64.5736 8.78906C63.4479 8.78906 62.7995 8.29995 62.7995 7.64076C62.7995 7.21999 63.153 6.84486 63.3568 6.84486C63.4935 6.84486 63.482 7.04938 63.6192 7.21999C63.823 7.49287 64.1074 7.60667 64.6303 7.60667C68.9844 7.60667 72.0884 0.705462 67.3473 0.705462Z" fill="#FFFFEE"/>
<path d="M73.4201 3.87663C73.2612 3.64886 72.6359 4.06962 72.1468 4.82024C72.6473 4.78616 73.5684 4.0927 73.4201 3.87663ZM71.3625 4.12661C71.9084 3.52405 72.5901 3.17164 73.1702 3.17164C73.6019 3.17164 73.9774 3.69483 73.9774 4.1607C73.9774 4.68372 72.7833 5.67278 72.3064 5.67278C72.136 5.67278 71.9084 5.4908 71.8287 5.29747C71.6584 5.61596 71.5446 5.92275 71.5446 6.1729C71.5446 6.44595 71.6584 6.62775 72.0107 6.62775C73.1022 6.62775 74.0346 5.66124 74.4892 5.07022C74.5688 4.95659 74.7728 5.12703 74.7728 5.241C74.7728 5.70669 73.352 7.35547 71.7493 7.35547C71.1807 7.35547 70.5098 6.77563 70.5098 6.15052C70.5098 5.44535 70.8963 4.66082 71.3625 4.12661Z" fill="#FFFFEE"/>
<path d="M75.9472 6.20578C75.9472 5.96735 74.3895 5.63766 74.3895 4.70524C74.3895 3.73873 75.6177 2.60196 76.8223 2.60196C77.2999 2.60196 77.8685 3.04527 77.8685 3.4774C77.8685 3.96633 77.2656 4.95539 76.7312 4.95539C76.5045 4.95539 76.1743 4.67115 76.1743 4.38692C76.1743 4.26176 76.2543 4.17086 76.3223 4.17086C76.5952 4.29584 77.5731 3.4774 77.2999 3.27287C76.9018 2.9771 75.5039 3.93207 75.5039 4.68252C75.5039 5.12583 76.7658 5.44415 76.7658 6.03535V6.09234C77.141 5.87627 77.4591 5.6485 77.6984 5.41006C77.8229 5.28473 77.9253 5.17145 77.9931 5.06902C78.0736 4.95539 78.2777 5.12583 78.2777 5.2398C78.2777 5.85337 76.8569 6.60417 76.3907 6.79716C75.9243 7.28574 75.163 7.75195 74.6968 7.75195C74.2191 7.75195 74.0371 7.17229 74.0831 6.85397C74.8442 6.76307 75.9472 6.39912 75.9472 6.20578Z" fill="#FFFFEE"/>
<path d="M78.7019 6.25244C78.7019 6.33232 78.7248 6.41186 78.8042 6.41186C79.1337 6.41186 80.3962 4.54719 80.9528 3.73976C80.8846 3.71721 80.8168 3.69483 80.7486 3.69483C79.8843 3.69483 78.7019 5.38837 78.7019 6.25244ZM80.4644 3.10329C80.7257 3.10329 80.9641 3.28491 81.1124 3.43297C81.8285 2.0915 82.7038 0.897747 82.9314 0.897747C83.5338 0.897747 83.886 1.17062 83.886 1.44349C83.886 1.62529 83.3747 2.19359 82.8741 2.86485C82.2376 3.71721 81.3279 5.03613 81.0552 6.38896C81.033 6.4914 81.0895 6.53685 81.1805 6.50276C81.4878 6.3776 82.113 5.85458 82.5332 5.41126C82.647 5.28593 82.7494 5.17248 82.829 5.07004C82.9085 4.95642 83.1132 5.12703 83.1132 5.24083C83.1132 5.41126 82.9536 5.59324 82.8634 5.72976C82.5447 6.16136 81.5099 7.35547 80.9757 7.35547C80.6914 7.35547 80.1119 6.79836 80.1119 6.32079C80.1119 6.15052 80.1348 5.95701 80.1799 5.75214C79.6686 6.59383 79.1115 7.35547 78.6567 7.35547C78.27 7.35547 77.7129 6.71865 77.7129 6.09354C77.7129 4.66082 79.1795 3.10329 80.4644 3.10329Z" fill="#FFFFEE"/>
<path d="M85.4279 3.87663C85.2692 3.64886 84.6441 4.06962 84.1546 4.82024C84.6555 4.78616 85.5765 4.0927 85.4279 3.87663ZM83.3705 4.12661C83.9162 3.52405 84.5987 3.17164 85.178 3.17164C85.6101 3.17164 85.9852 3.69483 85.9852 4.1607C85.9852 4.68372 84.7913 5.67278 84.3144 5.67278C84.1431 5.67278 83.9162 5.4908 83.8368 5.29747C83.6662 5.61596 83.5524 5.92275 83.5524 6.1729C83.5524 6.44595 83.6662 6.62775 84.0185 6.62775C85.1103 6.62775 86.0427 5.66124 86.4974 5.07022C86.5768 4.95659 86.7816 5.12703 86.7816 5.241C86.7816 5.70669 85.3601 7.35547 83.7571 7.35547C83.1885 7.35547 82.5176 6.77563 82.5176 6.15052C82.5176 5.44535 82.9043 4.66082 83.3705 4.12661Z" fill="#FFFFEE"/>
<path d="M90.9429 3.01256C90.6356 3.01256 90.3629 2.50107 90.4309 2.28501C90.4424 2.27365 90.4653 2.26228 90.488 2.26228C91.0789 2.33063 91.9659 1.87596 92.6712 1.40975C93.2734 1.40975 93.3529 1.53474 93.3645 1.78489C93.3645 1.80744 93.3529 1.83016 93.3416 1.85306C92.1588 3.38769 91.1137 6.60554 91.1137 7.29882C91.1137 7.33309 91.0904 7.35581 91.056 7.36717C90.7037 7.40091 90.2949 7.21929 90.1243 6.73035C89.9309 6.17324 90.9086 4.42255 91.8746 2.76258C91.955 2.62606 92.091 2.46663 92.1935 2.35336L92.1821 2.342C92.0797 2.45579 91.9321 2.60351 91.7951 2.68304C91.4659 2.88739 91.1929 3.01256 90.9429 3.01256Z" fill="#FFFFEE"/>
<path d="M94.1531 4.14986C94.1531 4.22923 94.176 4.2974 94.2555 4.2974C94.5857 4.2974 95.324 3.21744 95.8473 2.09186C95.7795 2.04659 95.6542 2.01197 95.5746 2.01197C94.756 2.01197 94.1531 3.31953 94.1531 4.14986ZM92.9707 6.69628C92.9707 6.46868 93.0508 6.3096 93.1303 6.24178C93.1525 6.21871 93.1869 6.21871 93.2098 6.24178C93.2665 6.3096 93.4714 6.35523 93.5509 6.35523C94.3349 6.35523 95.6542 4.50228 95.9384 3.18336C95.4836 4.01282 94.8242 4.9795 94.0965 4.9795C93.6303 4.9795 93.2549 4.51364 93.2549 3.96789C93.2549 2.77413 94.2325 1.42113 95.3698 1.42113C95.6082 1.42113 95.8695 1.50066 96.0515 1.63719L96.1088 1.4893C96.3135 1.35278 96.9275 1.39823 97.075 1.68246C97.2568 2.02334 96.7341 3.6382 96.507 4.16088C96.063 5.17283 95.2673 7.36719 93.8916 7.36719C93.3918 7.36719 92.9707 7.01443 92.9707 6.69628Z" fill="#FFFFEE"/>
<path d="M98.1323 6.76445C98.8821 6.76445 99.7017 4.19496 99.1098 4.19496C98.3936 4.19496 97.4841 6.76445 98.1323 6.76445ZM100.975 2.42172C100.975 2.88741 100.633 3.31953 100.304 3.31953C99.9631 3.31953 99.7696 2.94439 99.8835 2.72868C100.269 2.72868 100.463 1.96687 100.042 1.96687C99.4853 1.96687 98.6782 3.27443 98.3936 3.96789C98.6207 3.77438 98.8821 3.66058 99.1331 3.66058C99.6669 3.66058 100.133 3.96789 100.133 4.71799C100.133 5.84339 99.4969 7.36719 98.1437 7.36719C97.5294 7.36719 96.8926 6.87825 96.8926 5.97992C96.8926 3.72893 98.7116 1.40976 99.9853 1.40976C100.644 1.40976 100.975 1.85307 100.975 2.42172Z" fill="#FFFFEE"/>
<path d="M100.818 6.36624C102.046 6.082 103.717 3.55779 104.331 2.21649C103.456 2.42136 102.603 3.22845 102.137 4.43322C102.114 4.46731 102.08 4.46731 102.046 4.45629C101.716 4.30841 101.319 3.66022 101.614 3.14891C102.035 2.39846 103.615 1.47741 104.729 1.39787C105.104 1.37497 105.559 1.55677 105.559 2.23939C105.559 3.02357 103.57 5.77504 101.751 6.70711C102.614 6.85517 103.41 6.53685 103.922 5.78658C103.945 5.7635 103.99 5.7635 104.013 5.77504C104.24 5.93411 104.468 6.45731 104.183 6.88926C103.649 7.66225 101.887 7.37784 100.886 7.00306C100.807 7.01407 100.739 7.01407 100.659 7.01407C100.466 7.01407 100.375 6.86653 100.329 6.73001C100.216 6.34334 100.375 6.082 100.545 6.19545L100.818 6.36624Z" fill="#FFFFEE"/>
<path fill-rule="evenodd" clip-rule="evenodd" d="M60.3906 4.68849C60.3906 5.13424 60.0289 5.49609 59.583 5.49609C59.1369 5.49609 58.7754 5.13424 58.7754 4.68849C58.7754 4.24238 59.1369 3.88088 59.583 3.88088C60.0289 3.88088 60.3906 4.24238 60.3906 4.68849Z" fill="#FFFFEE"/>
<path fill-rule="evenodd" clip-rule="evenodd" d="M109 4.68849C109 5.13424 108.638 5.49609 108.192 5.49609C107.746 5.49609 107.385 5.13424 107.385 4.68849C107.385 4.24238 107.746 3.88088 108.192 3.88088C108.638 3.88088 109 4.24238 109 4.68849Z" fill="#FFFFEE"/>
</svg>
