<svg xmlns="http://www.w3.org/2000/svg" xml:space="preserve" width="128" height="128" data-id="lg_Z3gY1Z5axcBbpPCo0x" data-version="1" viewBox="0 0 128 128"><g data-padding="20"><g transform="translate(54.05 54.496)scale(.17607)"><rect width="449.841" height="559.35" x="-568.909" y="-625.868" fill="none" rx="0" ry="0" transform="translate(400.5 400.17)"/><path fill="#4e0046" d="M-96.789 214.317q-20.31-.49-37.83-10.88t-24.53-28.28l10.87-39.39 26.83 2.17v-2.17l16.68-210.28-40.85-12.33q1.69-21.75 10.76-43.5 9.06-21.76 34.44-34.57 8.46.97 24.53 5.2 16.08 4.23 35.05 10.88 18.97 6.64 36.98 14.98t30.57 18.01l41.58 190.94 1.93-.24 6.28-53.18q3.15-17.88 6.65-37.46 3.51-19.58 6.77-36.74t5.44-28.03q-6.77-2.91-12.93-5.81-6.17-2.9-10.76-5.55 1.93-21.76 14.74-42.54 12.81-20.79 37.23-30.46 9.66 1.45 26.34 7.74 16.68 6.28 35.17 15.34 18.49 9.07 34.32 18.98t23.81 18.37q-.73 17.88-2.06 45.92t-3.74 61.27q-2.42 33.23-6.41 67.56-3.99 34.32-9.79 65.01l44.96-6.52 7.73 40.12q-1.93 2.9-5.92 10.15t-11.12 15.47-18 14.02q-10.88 5.8-26.35 5.8-21.27 0-38.07-11.72-16.8-11.73-19.7-35.17-1.45-11.36-2.65-32.75-1.21-21.39-2.42-44.6-1.45-28.52-2.06-59.33-.6-30.82-.48-58.37.12-27.56.61-45.93l-4.6-.72-46.89 205.69q7.74 16.67 11.24 33.83 3.51 17.16 6.65 35.77-9.43 6.77-21.87 9.91-12.45 3.15-25.99 3.15-18.12 0-35.41-5.32-17.28-5.32-28.15-14.26 0-5.08.72-15.59.73-10.51 2.9-21.51 2.18-11 6.29-17.04l-69.86-214.87-4.59 1.69q1.45 7.25 4.35 26.1 2.9 18.86 6.41 44.48 3.5 25.62 6.64 53.53 3.15 27.92 5.44 53.66 2.3 25.74 2.54 44.59.24 17.41-4.95 32.15-5.2 14.74-17.41 23.69-12.2 8.94-33.47 8.94h-1.45Z"/></g><path fill="transparent" stroke="transparent" stroke-width=".184" d="M22.542 12.5h82.916v103H22.542z"/></g></svg>