<svg xmlns="http://www.w3.org/2000/svg" xml:space="preserve" width="1500" height="1500" fill="#fff" stroke="#fff" data-id="lg_ejoC4ENrABQbd0gd1w" data-version="1" viewBox="0 0 1500 1500"><path fill="#000" stroke="transparent" d="M0 0h1500v1500H0z"/><g data-padding="20"><g transform="translate(-578.546 -575.177)scale(1.71877)"><rect width="418.377" height="497.352" x="123.813" y="82.576" fill="#444" rx="10" ry="10" transform="translate(400 400)scale(1.12)"/><path fill="#e7e7e7" d="M992.093 732.195c0 71.064-.016 142.127.057 213.19 0 2.86-1.514 2.756-3.427 2.756q-34.684-.01-69.373-.005H564.169c-.61 0-1.217-.037-1.82 0-1.95.13-2.673-.609-2.673-2.71.057-142.037.057-284.08.062-426.119 0-2.927.666-3.624 3.625-3.754 1.035-.047 2.08-.01 3.12-.01H986.07c.868 0 1.737-.037 2.6.02 2.797.177 3.41.853 3.41 3.708v212.93Zm-3.734-213.2H563.555v425.392h424.804Z"/><path fill="#e7e7e7" d="M980.736 730.901v200.444c0 6.412-.042 6.453-6.495 6.453H576.2c-4.757 0-4.29.38-5.116-4.955-.078-.51-.01-1.04-.01-1.56V530.92c0-.692.025-1.388 0-2.08-.053-1.466.55-2.309 2.1-2.324 1.727-.016 3.458-.068 5.185-.068h394.633q7.743 0 7.737 7.665v196.804Zm-3.292 203.127V533.332q0-3.578-3.702-3.578H577.829q-3.458 0-3.458 3.297v400.977Z"/><path fill="#e7e7e7" d="M968.13 731.681v184.6c0 1.82.11 3.64.063 5.454-.036 1.42-.463 2.43-2.293 2.43-49.54-.053-99.08-.079-148.621-.032-3.931 0-7.374-.827-10.77-2.912-7.373-4.524-14.93-8.747-22.458-13.01-.988-.557-2.231-.79-3.38-.895-1.456-.13-2.985.28-4.405.015-5.257-.977-9.51 1.155-13.79 3.817-5.73 3.562-11.757 6.64-17.472 10.23-3.234 2.032-6.557 2.755-10.29 2.75-44.346-.053-88.692-.03-133.038-.03-5.194 0-10.394-.085-15.584.061-1.97.057-2.454-.926-2.49-2.476-.042-1.903.062-3.81.062-5.72v-371.8c0-5.038.572-5.6 5.725-5.6 47.809 0 95.623-.02 143.43.073 2.035 0 4.27.681 6.059 1.68 9.667 5.407 19.199 11.06 28.845 16.504 1.414.801 3.182 1.103 4.83 1.337 6.454.915 12.033-1.087 17.499-4.597 7.71-4.95 15.797-9.319 23.784-13.827a8.84 8.84 0 0 1 4.15-1.118c48.417-.057 96.834-.052 145.252-.042 4.035 0 4.882.884 4.882 4.878v188.24Zm-3.644-189.556h-1.997c-47.98 0-95.961-.005-143.936.042-1.134 0-2.387.395-3.38.956-8.95 5.091-17.966 10.083-26.723 15.486-3.968 2.45-8.04 3.25-12.527 3.25s-8.56-.78-12.532-3.24c-8.606-5.324-17.456-10.254-26.275-15.225a9.9 9.9 0 0 0-4.602-1.222c-47.46-.063-94.921-.052-142.376-.052h-2.71v378.482h2.45c49.103 0 98.212.01 147.316-.037 1.138 0 2.392-.369 3.39-.93 6.78-3.828 13.64-7.546 20.202-11.726a25.1 25.1 0 0 1 14.607-4.119c5.444.11 10.43.671 15.21 3.822 6.562 4.327 13.546 8.02 20.41 11.877a8.3 8.3 0 0 0 3.869 1.066c48.932.052 97.864.042 146.796.042h2.823V542.125Z"/><path fill="#e7e7e7" d="M726.56 583.2c5.408 3.245 10.54 4.316 16.52.494 9.6-6.13 19.672-11.523 29.536-17.243 2.215-1.285 4.373-1.285 6.588 0 9.865 5.72 19.937 11.112 29.536 17.243 5.98 3.822 11.108 2.745 16.52-.494.672-.094 1.348-.15 2.008-.29 3.453-.755 6.89-1.624 10.369-2.237.81-.14 1.768.556 2.657.873-.5.811-.962 1.65-1.518 2.413-.172.234-.645.224-.931.395-4.784 2.902-9.573 5.798-14.331 8.752-.49.307-.765.957-1.202 1.534 7.754 1.877 17.238-2.694 21.31-10.02.39-.703.952-1.524 1.633-1.815 2.22-.936 3.427-.032 3.4 2.818-.083 9.194 3.604 16.968 8.877 24.15 1.04 1.42 2.413 2.59 3.63 3.878l.956-.13c.557-2.366 1.462-4.71 1.602-7.103.63-10.738-5.008-18.57-12.397-25.418-1.175-1.087-1.274-1.872-.63-3.073 1.259-2.335 2.856-1.04 4.42-.437 5.22 2.002 10.318 4.628 15.72 5.777 4.779 1.014 9.974.89 14.873.312 4.373-.52 4.784-2.594 1.882-5.798a25 25 0 0 0-2.246-2.152c-10.806-9.23-28.694-11.404-41.585-3.729-6.21 3.692-12.313 7.561-18.465 11.347-2.054.197-4.14.234-6.152.63-2.88.566-5.163-.552-7.524-1.94-8.055-4.743-16.167-9.376-24.248-14.072-2.917-1.695-3.016-3.364-.098-5.07a2212 2212 0 0 1 27.887-16.063c1.06-.603 2.465-.842 3.713-.847 45.557-.042 91.11-.037 136.666-.032 3.864 0 4.223.515 4.223 5.232V909.08c0 .868.057 1.747-.068 2.594-.483 3.266-1.27 3.921-4.534 3.921q-69.373.026-138.741-.005c-1.061 0-2.252-.276-3.167-.796-7.675-4.362-15.304-8.798-22.932-13.234-3.432-1.996-3.448-3.76-.063-5.72 6.51-3.775 12.99-7.623 19.604-11.21 1.238-.672 3.406-.906 4.55-.27 8.658 4.793 18.242 6.01 27.753 6.998 9.01.936 18.127.936 27.196 1.16 5.11.124 9.953-1.306 14.42-3.734a70.7 70.7 0 0 1 23.732-7.842c13.983-2.074 26.245-13.057 26.843-29.504.166-4.644-2.57-11.05-6.9-14.878-1.374 3.115-3.048 5.97-3.896 9.054-1.794 6.494-3.094 13.12-4.721 19.66-.49 1.972-1.087 4.046-2.184 5.7-1.113 1.674-3.032 1.15-3.401-.832-1.461-7.847-7.233-12.132-13.307-16.052-2.418-1.56-5.262-2.45-8.42-3.87.979 7.057 2.373 13.214 7.41 17.847 1.847 1.695 3.76 3.323 5.685 4.93 1.342 1.118 1.763 2.283.042 3.281-1.758 1.02-3.64 1.836-5.507 2.657-2.507 1.108-5.133 1.976-7.55 3.25-3.443 1.81-5.393 1.487-7.385-1.846-.925-1.55-1.565-3.27-2.36-4.903a16.69 16.69 0 0 0-15.002-9.37c-.312 4.466.535 8.647 3.55 12.006 1.816 2.023 4.286 3.448 6.345 5.278.655.582.93 1.596 1.383 2.413-.967.265-2.064.967-2.865.717-1.794-.556-3.421-1.638-5.153-2.412-4.545-2.044-9.214-3.287-15.08-2.013 1.856 1.498 3.292 2.517 4.55 3.723.66.635 1.009 1.602 1.498 2.418-.853.463-1.732 1.363-2.564 1.321-5.262-.234-10.556-.359-15.75-1.144-4.514-.68-7.51-3.806-9.085-8.065-2.86-7.727-2.096-15.33 1.253-22.714 1.784-3.93 3.047-7.94.692-11.897-1.176-1.966-3.302-3.365-4.998-5.023-1.388 1.45-2.99 2.756-4.123 4.383-3.744 5.377-2.96 11.4-1.914 17.316.395 2.236 1.222 4.524 2.382 6.474 1.94 3.26 2.829 6.635 2.605 10.39-.218 3.614-3.203 5.637-6.536 4.17-1.482-.65-2.777-1.726-4.124-2.662-2.57-1.784-4.872-2.049-7.842-.26-10.665 6.437-21.533 12.542-32.318 18.787-1.898 1.098-3.744 1.098-5.636-.005-11.144-6.484-22.303-12.943-33.431-19.458-2.111-1.238-4.004-.702-5.85.395-1.41.837-2.642 1.976-4.067 2.782-3.93 2.23-7.295.208-7.488-4.28-.16-3.702.91-6.93 2.788-10.077 3.624-6.069 4.888-19.022-1.186-26.03-1.93-2.232-2.512-2.43-4.8-.547-4.368 3.593-5.267 8.897-2.438 14.83 3.036 6.375 4.082 13.016 2.61 19.958-.91 4.284-2.694 8.132-6.802 10.238-1.56.801-3.395 1.243-5.153 1.436-4.03.447-8.086.65-12.126.946-.692.052-1.446.27-2.06.068-.831-.276-1.97-.744-2.19-1.394-.191-.567.547-1.68 1.156-2.24 1.305-1.208 2.797-2.21 4.545-3.558-3.344-1.565-6.256-.946-8.986-.234-2.896.76-5.642 2.116-8.434 3.245-.962.39-1.852 1.144-2.824 1.237-.848.084-1.758-.53-2.642-.837.375-.78.567-1.773 1.165-2.288 1.503-1.284 3.276-2.246 4.79-3.515 4.258-3.572 5.454-8.367 5.454-13.655-5.907-.723-12.417 3.37-15.257 9.37-.884 1.872-1.69 3.817-2.84 5.523-1.57 2.334-3.327 2.574-5.864 1.476-3.698-1.606-7.457-3.073-11.186-4.612-.634-.26-1.32-.473-1.866-.868-2.678-1.945-2.678-2.756 0-4.764 6.505-4.888 10.899-11.06 11.866-19.338.062-.515.172-1.03.203-1.545.015-.239-.094-.489-.187-.92-8.872 2.7-15.834 7.701-20.374 15.813-.567 1.014-.53 2.35-.978 3.453-.296.728-.858 1.695-1.471 1.846-.64.15-1.872-.354-2.163-.92a24.4 24.4 0 0 1-1.956-5.279c-1.523-6.302-2.714-12.688-4.435-18.933-.941-3.416-2.7-6.604-4.254-10.275-5.715 6.105-7.576 12.37-6.328 20.03 2.038 12.517 13.894 23.068 26.56 24.664a63.4 63.4 0 0 1 22.788 7.42c4.867 2.658 10.067 3.968 15.636 4.166 14.087.504 28.023-.765 41.767-3.713 4.087-.879 8.008-2.683 11.887-4.337 2.11-.9 3.806-.978 5.829.234 6.38 3.827 12.875 7.462 19.313 11.2q4.628 2.694-.068 5.45a2174 2174 0 0 1-23.16 13.364c-.916.52-2.107.796-3.167.796-45.99.031-91.978.016-137.962.01-4.425 0-5.356-.91-5.366-5.486-.026-11.7-.01-23.4-.01-35.094 0-107.37.01-214.745-.026-322.114 0-7.015-.52-7.067 7.108-7.062 44.257.026 88.514-.005 132.766.083 2.05 0 4.316.588 6.105 1.581 8.398 4.654 16.666 9.542 24.98 14.352.75.432 1.535.832 2.206 1.362q3.068 2.413-.317 4.394c-7.104 4.14-14.228 8.242-21.341 12.356-.676.39-1.42.691-2.013 1.175-4.175 3.38-8.87 3.255-13.738 2.153-.406-.094-.848-.037-1.274-.052q-7.654-4.769-15.31-9.558c-6.275-3.93-12.952-6.48-20.497-6.438-9.636.058-18.237 2.845-25.371 9.45-1.31 1.216-2.09 3.01-3.115 4.533 1.877.967 3.713 2.652 5.637 2.756 4.363.234 8.83.078 13.14-.624a44.2 44.2 0 0 0 16.172-6.084c1.233-.764 2.74-1.383 3.843.406.952 1.55.37 2.355-.946 3.614-5.632 5.382-10.437 11.424-11.71 19.427-.697 4.358-.853 8.762 2.09 13.135 1.42-1.497 2.792-2.678 3.837-4.092 5.35-7.249 9.012-15.127 8.924-24.409-.01-.92.816-2.59 1.33-2.62 1.082-.063 2.82.42 3.23 1.221 2.309 4.51 6.282 7.11 10.42 9.46 3.485 1.975 7.322 2.115 11.462.91a4.7 4.7 0 0 0-1.732-1.58c-4.727-2.83-9.495-5.59-14.165-8.514-.941-.588-1.503-1.784-2.236-2.699 1.06-.276 2.179-.926 3.167-.76 3.978.666 7.92 1.587 11.872 2.414Zm65.9 315.49c7.903 4.554 15.448 8.927 23.04 13.24.614.347 1.488.326 2.242.331q68.073.031 136.146.031c.666 0 1.33-.099 2.06-.156V549.504h-3.521c-43.217 0-86.435.026-129.652-.057-3.583-.006-6.75.54-9.776 2.568-3.156 2.112-6.567 3.848-9.86 5.757l-13.025 7.555c8.887 5.133 17.415 10.068 25.969 14.96.483.276 1.154.266 1.747.323 4.8.49 8.684-1.664 12.51-4.186 4.55-2.995 9.008-6.245 13.88-8.61 13.634-6.61 27.06-5.284 39.827 2.474 2.959 1.794 5.439 4.535 7.758 7.176 2.163 2.47 1.82 5.216-.92 6.927-2.262 1.414-4.94 2.548-7.561 2.917-6.146.863-12.251.114-18.184-1.805-2.044-.66-4.114-1.232-6.812-2.028.863 1.03 1.253 1.477 1.627 1.945 4.727 5.954 7.556 12.683 7.296 20.337-.1 2.944-.952 5.99-2.09 8.731-1.3 3.13-3.225 3.417-6.012 1.467-.988-.687-2.07-1.415-2.714-2.387-2.663-4.025-5.56-7.967-7.634-12.293-1.856-3.869-2.745-8.206-4.097-12.449-.354.416-.812 1.045-1.358 1.581-5.777 5.642-12.407 9.142-20.763 7.894-1.446-.214-3.505-.713-3.983-1.706s.338-3.042 1.206-4.134c1.466-1.846 3.422-3.307 5.694-5.418-1.872.717-3.115 1.268-4.4 1.674-3.442 1.082-7.134 1.778-10.337 0-11.19-6.224-22.225-12.735-33.27-19.214-1.258-.738-2.1-.603-3.265.083-10.088 5.887-20.322 11.54-30.29 17.623-4.96 3.026-9.714 2.928-14.784.9-.722-.292-1.466-.526-2.116-.754 2.007 2.215 4.228 4.18 5.824 6.562 1.555 2.32.77 3.89-1.94 4.217-5.933.718-11.798.624-16.853-3.312-2.496-1.945-4.96-3.926-7.498-5.944-.063.198-.172.411-.198.635-.988 9.588-5.215 17.71-11.622 24.69-4.222 4.601-7.4 3.748-9.225-2.206-2.028-6.614-1.102-13.067 1.857-19.182 1.529-3.157 3.583-6.064 5.45-9.158-.552.156-1.186.302-1.795.51-7.014 2.392-14.133 3.952-21.637 3.323-3.39-.286-6.48-1.056-9.006-3.437-1.857-1.748-2.241-4-.775-6.08a29 29 0 0 1 3.91-4.482c11.534-10.769 32.459-12.963 45.573-4.966 4.945 3.016 9.73 6.303 14.67 9.324 5.116 3.13 10.32 4.29 15.693.343 1.8-1.326 3.89-2.257 5.834-3.385 5.372-3.11 10.733-6.23 16.406-9.526-9.094-5.247-17.84-10.333-26.644-15.304-.9-.51-2.174-.473-3.271-.473q-66.513-.026-133.027-.016h-2.906v362.8h3.489c42.265 0 84.53-.12 126.79.124 6.657.036 12.47-1.097 18.009-4.83 4.784-3.225 9.953-5.877 15.19-8.919-6.5-3.78-12.678-7.436-18.944-10.92-.77-.426-2.132-.16-3.084.177-3.167 1.128-6.178 2.797-9.412 3.61-12.72 3.202-25.71 4.45-38.797 4.793a53.4 53.4 0 0 1-26.941-6.344 47.8 47.8 0 0 0-15.18-4.914c-10.706-1.57-19.468-5.892-26.41-14.362-8.315-10.146-8.533-26 .047-35.865.567-.655 1.534-1.092 2.397-1.34 3.084-.896 4.082 1.522 5.19 3.535 3.978 7.222 5.62 15.21 7.368 23.15l.926 4.274c1.7-2.168 3.12-4.128 4.695-5.948 4.779-5.512 10.764-9.184 17.737-11.227 2.32-.676 4.914.691 4.69 2.558-.904 7.644-2.38 15.101-8.376 20.707-1.436 1.341-2.85 2.714-4.498 4.284 2.76.843 5.252 1.52 7.68 2.377 1.877.665 4.144 2.62 5.387 2.07 1.472-.65 2.028-3.375 2.99-5.195 3.66-6.927 9.189-11.16 17.165-11.695 3.01-.203 4.348.723 4.166 3.505-.27 4.238-1.14 8.434-1.737 12.568 1.794-.135 4.274-.4 6.76-.468 1.279-.036 2.6.156 3.837.478 3.37.88 3.687 2.585 1.342 6.77h7.176c4.992-.004 8.148-2.26 9.636-7.04 2.08-6.682 1.404-13.192-1.597-19.443-3.614-7.524-2.537-14.674 3.068-19.38 3.666-3.079 6.667-2.746 9.646 1.06 6.048 7.728 6.87 21.435 1.883 29.932-.905 1.544-1.732 3.24-2.086 4.971-.306 1.482.115 3.11.214 4.675 1.352-.609 2.844-1.014 4.024-1.862 3.053-2.173 6.277-3.479 9.958-2.158 1.58.567 2.918 1.79 4.405 2.652 8.382 4.862 16.999 9.37 25.085 14.685 4.57 3.006 7.924 2.83 12.412-.062 8.356-5.382 17.207-9.995 25.756-15.09 6.12-3.65 8.554-3.677 14.274.556.416.306.837.618 1.284.878 1.856 1.061 2.912.557 2.699-1.575-.208-2.028-.468-4.327-1.555-5.933-4.274-6.334-4.31-13.432-3.957-20.52.244-4.914 2.823-9.068 6.214-12.542 2.38-2.439 4.67-2.408 7.373-.39 6.428 4.784 7.936 12.095 4.062 19.947-2.496 5.055-3.22 10.4-2.554 15.923.713 5.891 3.78 10.056 8.076 10.55 3.182.37 6.443.073 9.792.073-.24-.353-.427-.624-.61-.905-2.094-3.213-1.346-5.122 2.409-5.938a14.5 14.5 0 0 1 3.603-.328c2.36.094 4.722.344 6.703.5-.76-3.49-1.763-6.896-2.184-10.37-.582-4.81 1.186-6.364 5.965-5.594 7.53 1.206 12.688 5.543 15.88 12.365.51 1.097.973 2.215 1.477 3.313.728 1.58 1.638 1.794 3.287.951 2.584-1.32 5.366-2.262 8.07-3.354.853-.343 1.72-.645 2.61-.977-.171-.318-.223-.49-.338-.614a7 7 0 0 0-.748-.718c-7.005-5.434-10.296-12.797-11.264-21.434-.494-4.41 1.233-5.912 5.518-4.482 8.606 2.875 15.376 8.138 20.347 15.724.24.364.588.656.983 1.087.853-3.817 1.57-7.368 2.454-10.883 1.607-6.38 3.245-12.766 7.005-18.325 1.393-2.065 4.472-2.678 5.943-.822 3.157 3.994 6.355 8.091 6.828 13.458.452 5.153.057 10.317-1.955 15.075-5.08 11.996-14.27 19.245-27.04 21.377-7.686 1.284-15.054 3.151-21.85 6.99-6.355 3.587-13.245 5.136-20.447 4.902-8.55-.275-17.134-.54-25.61-1.57-9.064-1.097-18.236-2.23-26.468-6.833-.775-.432-2.246-.307-3.063.146-6.115 3.416-12.147 6.983-18.657 10.764Z"/><path fill="#e7e7e7" d="M871.442 785.812c6.152 7.51 5.855 16.173 5.845 24.898a120 120 0 0 0 1.409 17.784c.884 5.897-1.024 7.951-7.3 8.502-.51.047-1.103.083-1.545-.125-6.89-3.234-14.29-2.054-21.466-2.262-7.81-.223-14.357-2.73-19.853-8.746-1.732 6.37-6.355 9.131-11.986 10.754-4.072 1.17-7.624-.396-11.258-1.867-4.95-1.997-9.964-3.833-14.95-5.736a1.6 1.6 0 0 0-.505-.12c-10.005.12-20.03-.05-30.004.547-3.364.202-6.63 2.33-9.911 3.65-1.44.577-2.824 1.31-4.217 2.007-6.791 3.406-12.995 2.148-18.46-2.725-1.78-1.586-2.87-3.936-4.243-5.88-1.8 1.388-3.843 3.114-6.038 4.622-5.064 3.484-11.003 3.24-16.754 3.676-1.461.11-2.964.151-4.41-.052-3.79-.535-7.321.25-10.956 1.295a17.7 17.7 0 0 1-7.587.364c-3.427-.56-4.576-2.506-4.31-5.949.083-1.118.28-2.236.53-3.333 1.487-6.49 1.347-13.047 1.07-19.64-.311-7.639.407-15.1 5.82-21.6-.858-.204-1.383-.308-1.903-.453-4.753-1.31-8.19-5.393-8.045-10.54.104-3.656.624-7.478 1.872-10.89 3.93-10.743 5.944-21.845 5.096-33.129-.62-8.21-2.964-16.297-4.65-24.414-.737-3.55-1.865-7.02-2.614-10.57-1.337-6.33.95-11.19 6.328-14.665.562-.364 1.129-.708 1.836-1.15-6.76-5.87-8.388-13.69-8.28-21.912.12-8.814.844-17.618 1.29-26.422.089-1.757.947-2.709 2.74-2.776 5.16-.193 10.349-.115 15.47-.656 11.894-1.258 22.855 1.061 33.02 7.837 1.785-5.283 5.092-9.038 10.526-10.494 4.004-1.076 7.92-.17 11.726 1.071 5.75 1.878 11.357 4.238 17.19 5.788 12.46 3.312 24.675 1.992 36.599-2.766 3.448-1.373 6.963-2.652 10.546-3.583 10.067-2.605 16.057.39 20.27 10.067 5.074-3.874 10.883-5.944 17.003-7.31 7.852-1.754 15.657-.66 23.489.15 2.293.24 4.638.083 6.952-.063 2.002-.125 3.526.26 3.645 2.58.484 9.24 1.212 18.48 1.253 27.72.016 4.062-.956 8.28-2.298 12.137-1.097 3.146-3.406 5.871-5.44 9.204-.202-.582-.197-.369-.098-.312 7.26 4.384 9.25 8.372 7.524 16.666-1.32 6.344-3.26 12.553-4.82 18.85-3.936 15.923-2.74 31.55 2.538 47.02a42 42 0 0 1 2.25 11.35c.298 6.183-3.327 10.208-9.952 11.591ZM674.85 632.382c-.276 5.043-.557 9.515-.76 13.993-.207 4.576-.587 9.157-.441 13.728.244 7.618 1.965 14.653 9.458 18.683.364.198.708.53.92.884.807 1.368-.077 3.26-1.523 3.35-6.427.394-10.363 5.256-9.141 11.553.686 3.557 1.85 7.02 2.62 10.562 1.685 7.763 4.01 15.485 4.706 23.342a82.16 82.16 0 0 1-5.08 36.75 33.8 33.8 0 0 0-1.82 7.534c-.723 5.527 2.766 9.396 8.336 9.542.69.02 1.456-.073 2.043.197.65.302 1.456.89 1.59 1.493.116.525-.53 1.3-.971 1.856-.634.8-1.446 1.461-2.08 2.262-4.332 5.413-5.32 11.872-4.826 18.413.593 7.76.338 15.371-1.196 22.984-.592 2.943.089 3.677 3.11 3.848.858.047 1.83.14 2.569-.192 6.027-2.71 12.402-2.044 18.683-1.935 8.378.146 15.465-2.366 20.852-9.027a7.3 7.3 0 0 1 2.413-1.867c.603-.29 1.654-.374 2.117-.026.42.312.374 1.321.452 2.034.198 1.762-.052 3.697.598 5.267 1.524 3.687 8.48 6.947 12.366 5.814a44 44 0 0 0 8.132-3.323c6.745-3.53 13.723-5.408 21.45-4.732 4.805.421 9.683-.052 14.524 0 2.928.031 6.032-.265 8.736.598 5.158 1.643 10.176 3.827 15.085 6.13 4.815 2.263 9.13 1.82 13.42-1.148 3.173-2.2 4.687-4.925 3.683-8.866-.463-1.81.676-2.75 2.376-1.826 1.54.838 2.87 2.158 4.108 3.443 3.994 4.134 8.565 6.99 14.503 7.13 4.32.103 8.653.087 12.964.394 2.89.208 5.75.91 8.627 1.363 1.695.27 3.4.712 5.09.67 2.1-.046 3.287-.962 2.7-3.515-1.774-7.743-1.8-15.558-1.311-23.488.483-7.842-.915-15.387-7.467-20.94-.338-.287-.136-1.888.327-2.294.619-.54 1.732-.67 2.647-.707 6.048-.224 9.615-4.15 8.466-10.062-.864-4.472-2.507-8.788-3.73-13.198-4.918-17.778-4.258-35.412 1.317-52.95a108 108 0 0 0 3.078-12.055c.983-5.044-3.87-11.403-8.242-11.336-.884.016-1.778-.68-2.667-1.05.42-1.02.56-2.569 1.31-2.964 5.564-2.943 8.356-8.003 8.627-13.718.504-10.655.01-21.36-.063-32.058-3.79-.223-6.983-.223-10.124-.629-9.188-1.18-18.35-1.654-27.14 1.882-3.39 1.363-6.452 3.552-9.63 5.424-.925.546-1.72 1.316-2.58 1.981-.586-1.03-1.538-2.002-1.7-3.094-.987-6.65-6.951-11.17-13.488-9.646a86 86 0 0 0-12.578 4.02c-16.282 6.567-32.47 6.562-48.756 0-4.154-1.675-8.496-2.933-12.828-4.103-3.078-.832-5.99.02-8.575 1.92-2.907 2.136-4.331 5.022-4.727 8.59-.088.821-.936 1.845-1.695 2.194-.442.202-1.471-.682-2.132-1.212-1.263-1.009-2.283-2.522-3.697-3.104-4.53-1.862-9.12-4.493-13.827-4.82-9.667-.677-19.422-.053-29.198.036Zm-42.053-65.708c9.246 1.695 16.204 5.46 20.093 13.645 1.357 2.855 1.134 3.536-1.66 5.158-9.015 5.226-20.767 1.233-25.057-8.517-.38-.863-.728-1.732-1.092-2.6-4.805 1.96-8.7 8.46-7.364 12.464.947-.333 1.924-.603 2.84-1.014 3.172-1.42 6.385-1.336 9.63-.348 2.454.743 2.896 2.173 1.253 4.253-2.257 2.86-5.34 4.306-8.85 4.961-1.004.187-1.997.4-2.87 1.212 2.568-.588 5.163-1.082 7.7-1.779 5.393-1.482 10.744-1.716 16.069.203 3.02 1.087 3.374 3.09.936 5.445-5.767 5.564-12.85 7.826-20.655 7.342-3.947-.244-7.82-1.565-12.027-2.465-1.337 8.845-.364 17.982 3.983 26.79.088-1.372.15-2.75.265-4.118.598-7.165 4.742-12.147 10.28-16.073 2.658-1.882 5.674-3.28 8.59-4.779 2.102-1.076 3.667-.4 4.535 1.82a18.56 18.56 0 0 1 .962 10.442 35.1 35.1 0 0 1-9.38 18.18c-.645.665-1.217 1.398-2.003 2.303 2.704.25 5.195.254 7.587.743 7.7 1.581 14.58 4.841 20.187 10.494 3.926 3.957 3.41 6.77-1.732 9.08-10.436 4.684-20.436 3.14-30.046-2.383-12.792-7.352-18.87-19.047-21.127-33.155a84.24 84.24 0 0 1 3.858-41.969c4.862-13.754 14.274-23.254 28.85-26.54 7.623-1.717 15.288-1.65 22.396 2.584 2.985 1.778 3.276 2.787 1.045 7.082-1.248 2.402-3.01 1.576-4.846.686-7.332-3.54-14.57-3.489-22.355.848Zm3.24 43.087c-1.368.62-2.574 1.098-3.723 1.69-10.816 5.564-14.347 12.506-12.454 24.01.166 1.023-.557 2.932-1.295 3.186-.988.344-2.907-.14-3.526-.956a27 27 0 0 1-3.608-6.547c-3.646-9.428-4.608-19.136-2.335-29.042.68-2.975 2.194-3.41 4.716-1.695 7.847 5.34 20.395 4.03 27.67-3.037-.713-.24-1.316-.5-1.945-.65-4.644-1.118-9.085-.042-13.526 1.232-4.492 1.29-8.855 1.394-12.89-1.539-1.774-1.29-1.758-2.912-1.04-4.602.79-1.867 2.236-.94 3.562-.634 4.399 1.008 8.465.358 12.282-2.564-2.834-1.004-3.494-.707-7.14.718-1.518.592-3.66.67-5.122.052-1.918-.812-2.21-3.032-1.762-5.003 1.19-5.252 3.68-9.682 8.48-12.495 3.225-1.888 5.206-1.14 6.542 2.46 1.898 5.1 5.518 8.35 10.775 9.552 3.53.806 6.983.353 10.285-1.904-.77-1.29-1.326-2.475-2.11-3.478-4.322-5.528-9.97-8.32-17.041-8.409-1.108-.015-2.715-.9-3.136-1.815-.322-.707.55-2.506 1.404-3.125 3.88-2.829 8.045-4.924 13.094-4.987 5.23-.062 10.322.188 15.293 2.788.016-.942-.125-2.06-.588-2.216-3.244-1.086-6.536-2.693-9.854-2.797-15.45-.473-26.977 6.515-33.727 20.25-7.077 14.397-8.304 29.878-5.855 45.623 1.95 12.532 7.316 23.052 18.595 29.786 6.157 3.676 12.75 6.027 20.01 4.826 3.4-.562 6.65-2.023 10.187-3.146-.557-.957-.687-1.28-.9-1.534-6.937-8.46-21.403-12.844-31.897-9.818-.998.291-2.886.042-3.281-.614-.92-1.508.5-2.236 1.752-3.078 7.38-4.95 12.714-11.476 14.462-20.384.634-3.219 1.502-6.604-.364-10.109ZM923 639.417c-1.44-1.695-2.496-3.037-3.66-4.28-4.676-4.992-7.172-11.076-7.983-17.685-.374-3.037.54-6.292 1.227-9.37.463-2.08 2.216-2.553 4.124-1.768 6.188 2.537 11.612 6.146 15.683 11.57 3.006 4.01 3.578 8.705 3.838 13.551 4.3-8.69 5.049-17.852 3.9-26.874-4.025.895-7.873 2.242-11.8 2.522-7.492.53-14.46-1.372-20.102-6.656-1.092-1.019-2.111-2.662-2.148-4.045-.02-.765 1.96-1.898 3.224-2.325 4.81-1.632 9.688-1.357 14.56-.067 2.725.723 5.49 1.3 8.372 1.341-1.747-.4-3.666-.478-5.205-1.274-2.402-1.242-4.79-2.724-6.734-4.576-1.747-1.664-1.04-3.286 1.31-3.998 3.245-.983 6.459-1.087 9.63.338.92.41 1.899.691 2.845 1.024 1.389-3.92-2.47-10.41-7.42-12.527a18.88 18.88 0 0 1-7.374 10.327c-5.574 3.937-13.67 4.15-19.354.48-1.753-1.135-2.215-2.315-1.29-4.317 3.51-7.603 10.463-12.6 19.885-14.352-1.56-.754-3.047-1.815-4.696-2.21-5.86-1.399-11.663-1.415-17.15 1.58-1.804.99-3.608 1.711-4.877-.629-2.251-4.16-2.023-5.5 1.056-7.072 11.975-6.125 23.514-4.3 34.49 2.408 9.549 5.834 15.149 14.747 18.045 25.418 4.082 15.038 5.128 30.15.93 45.375-4.45 16.151-14.99 26.171-31.006 30.347-6.672 1.737-13.26.447-19.422-2.584-4.051-1.992-4.54-4.769-1.373-8.024 7.067-7.27 15.745-11.07 25.854-11.612.687-.036 1.378 0 2.63 0Zm-27.69 15.044a24.75 24.75 0 0 0 11.206 4.102c13.634 1.602 29.188-9.39 34.138-21.788 6.656-16.666 5.866-33.53 1.165-50.44-2.72-9.776-8.024-17.877-16.827-23.18-9.366-5.643-19.24-7.484-29.661-2.736-1.586.722-1.581 1.482-.65 2.558 9.516-4.108 18.704-4.368 27.409 1.742 1.06.744 2.106 2.444 2.049 3.65-.094 2.034-2.117 1.878-3.682 1.815-4.935-.197-9.136 1.768-12.937 4.602-2.486 1.851-4.504 4.217-5.45 7.374.406.265.67.483.972.624 7.842 3.811 16.713-.063 19.932-8.7 1.217-3.265 3.214-3.993 6.245-2.33 4.555 2.497 6.927 6.615 8.419 11.363.712 2.267.822 4.612-1.248 6.198-1.95 1.498-4.066.853-6.074-.28-1.934-1.093-3.978-1.488-6.666-.469 4.098 2.84 8.117 3.687 12.537 2.61 1.326-.322 2.772-1.22 3.557.645.718 1.696.749 3.344-1.056 4.597-3 2.085-6.27 2.891-9.843 2.17-2.288-.459-4.535-1.109-6.807-1.634-3.895-.9-7.764-1.108-11.705.426 7.41 7.135 19.443 8.31 27.898 2.876 2.298-1.477 3.65-1.009 4.467 1.612.28.905.603 1.851.603 2.777.005 5.605.286 11.242-.234 16.806-.51 5.45-2.533 10.592-5.43 15.293-.935 1.52-2.167 2.995-4.201 2.132s-1.69-2.605-1.305-4.446c.42-2.007.765-4.155.51-6.157-1.04-8.252-8.658-16.302-17.342-18.304-.213 1.893-.75 3.776-.577 5.585 1.045 10.998 6.51 19.261 15.813 25.132.702.442.82 1.804 1.217 2.735-.895.265-1.92.962-2.668.738-9.292-2.823-17.83-.743-25.86 4.02-2.756 1.638-5.085 4.004-7.914 6.282m3.728 120.447c4.509-2.012 9.07-2.678 13.75-1.42a22.4 22.4 0 0 1 5.652 2.43c2.953 1.788 3.198 2.89 1.476 5.97-3.733 6.675-9.578 10.232-17.134 10.315-2.558.032-5.137-1.508-7.997-2.423l2.168 14.513c1.253-1.367 1.94-2.095 2.6-2.844 4.306-4.888 9.89-6.396 16.14-6.105 2.325.11 3.319 1.363 3.23 3.75-.327 8.943-5.813 15.048-15.241 16.821 3.817 4.56 11.575 5.518 15.59 1.337 2.558-2.663 4.487-6.006 6.323-9.256.593-1.056.322-2.902-.125-4.186-1.721-5.003-2.444-10.036-1.55-15.304.713-4.207 2.74-7.384 6.49-9.48 2.028-1.133 4.27-.493 4.93 1.66 4.264 13.89.135 32.936-11.513 42.582-4.207 3.484-9.272 5.096-14.685 5.08-7.41-.025-12.215-4.497-15.6-10.472-4.826-8.507-7.192-17.909-7.426-27.58-.301-12.533.094-25.086.49-37.623.223-7.15 1.82-14.092 5.423-20.384a34.3 34.3 0 0 1 4.129-5.62c1.965-2.21 3.296-2.08 4.94.373 4.108 6.115 6.073 12.875 6.432 20.26.5 10.243-2.548 19.265-8.497 27.611Zm18.19 4.43c-4.503-3.177-9.225-3.743-14.284-1.95-2.606.926-5.143 2.075-7.806 2.772-1.06.281-2.37-.39-3.562-.624.41-1.118.53-2.517 1.28-3.312 8.74-9.256 12.636-20.057 10.82-32.78a32.76 32.76 0 0 0-5.485-14.239c-1.253 1.982-2.403 3.594-3.34 5.32-3.992 7.374-4.694 15.465-5.1 23.63-.64 12.796-1.31 25.588.567 38.344 1.056 7.16 3.016 14.07 6.729 20.321 4.628 7.79 12.35 10.203 18.98 6.37-1.217 0-2.678.115-4.12-.02-6.181-.588-10.971-3.438-13.971-8.98-.4-.739-.478-1.649-.702-2.48.946-.147 2.007-.65 2.818-.386 7.873 2.6 16.178-4.3 14.83-12.803-4.28.536-8.538.978-11.808 4.306-1.274 1.295-2.44 2.688-3.666 4.03-2.22 2.434-3.776 2.194-4.9-.8-.482-1.29-.971-2.616-1.164-3.968-.691-4.873-1.112-9.787-1.944-14.633-.328-1.909.374-3.006 1.835-3.38.848-.219 2.236.385 2.928 1.076 2.454 2.455 5.1 4.176 8.746 3.437 5.476-1.107 9.683-3.93 12.319-9.256Zm15.033 2.6c-4.243 2.304-5.782 7.135-5.48 12.574.306 5.481 4.804 10.36 2.11 16.22 4.577-9.148 6.355-18.549 3.37-28.793m-283.898 34.023c-9.51-1.783-14.794-7.457-15.418-16.349-.23-3.229.65-4.227 3.952-4.3 6.292-.146 11.757 1.71 15.886 6.713.437.525.926 1.01 2.023 2.195l2.335-14.83c-.567.088-.874.04-.994.17-6.442 6.813-21.637.386-25.012-9.318-.577-1.658-.005-2.792 1.352-3.785 5.502-4.004 11.46-4.425 17.758-2.377.739.24 1.44.578 2.164.858.062.026.156-.02.42-.067-1.29-2.148-2.672-4.176-3.78-6.344-6.952-13.63-6.593-27.129.973-40.399 2.23-3.916 3.572-4.02 6.536-.53 4.992 5.876 7.358 12.911 8.149 20.43 1.502 14.222 2.152 28.496 1.055 42.78-.707 9.205-2.683 18.17-7.103 26.39-7.831 14.566-21.518 13.495-31.21 5.487-7.546-6.235-10.88-14.976-12.18-24.55-.763-5.647-.581-11.2 1.05-16.702.906-3.037 2.643-3.837 5.3-2.277 6.287 3.686 7.02 9.73 6.526 16.057-.24 3.053-1.362 6.037-2.028 9.064-.202.905-.572 1.997-.26 2.761 2.018 4.992 4.296 9.85 9.73 12.11 3.89 1.623 9.713.235 12.78-3.192Zm5.153-86.575c-.52.775-.93 1.31-1.258 1.898-7.514 13.432-5.658 30.836 4.513 42.432.916 1.04 1.97 1.976 2.75 3.105.485.702 1.04 2.043.724 2.454-.5.65-1.685.978-2.61 1.04-.905.068-1.878-.27-2.767-.593-2.111-.77-4.155-1.726-6.281-2.438-4.977-1.664-9.641-1.118-14.18 2.21 1.18 1.565 2.084 3.062 3.275 4.274 6.074 6.183 12.335 6.36 18.486.733.536-.489 1.924-.764 2.423-.42a4.68 4.68 0 0 1 1.83 2.667c.23 1.216-.124 2.568-.353 3.837-.962 5.335-1.81 10.707-3.047 15.98-.54 2.314-2.423 2.548-4.113.832-1.212-1.233-2.283-2.605-3.448-3.885-3.395-3.744-7.857-4.59-12.677-4.893-.094.588-.203.915-.193 1.238.338 8.486 7.306 13.556 15.444 11.336.718-.198 1.706.041 2.366.426.302.177.38 1.357.104 1.81-2.823 4.654-6.458 8.387-12.085 9.365-2.256.39-4.596.307-6.65.426 5.085 2.746 10.436 2.392 14.757-1.6a25 25 0 0 0 5.226-6.678c4.498-8.674 6.38-18.09 6.724-27.773.478-13.416.338-26.843-1.472-40.17-.868-6.417-3.146-12.355-7.498-17.623Zm-31.06 81.042c.177-2.46.198-5.148.609-7.774.494-3.14 1.607-6.198 1.955-9.344.572-5.205-1.664-9.578-5.486-11.237-2.995 10.093-1.206 19.51 2.923 28.36Z"/><path fill="#e7e7e7" d="M620.136 739.767c.333-.26.406-.307.463-.37 3.016-3.16 2.767-6.193.81-10.108-3.103-6.225-6.187-12.704-7.627-19.433-1.212-5.668-.863-11.986.208-17.758 1.518-8.195 7.446-13.405 14.758-17.009 1.716-.848 3.005-.083 3.655 1.368 1.747 3.92 3.9 7.794 4.805 11.928 2.995 13.66 2.324 27.358-1.19 40.852-2.065 7.93-5.814 15.173-10.49 21.897-4.492 6.463-9.344 12.698-13.524 19.36-10.723 17.092-10.848 34.517-.822 52.015a9.4 9.4 0 0 0 1.492 2.116c1.649 1.623 1.212 3.094-.24 4.462-2.22 2.09-3.535 2.205-5.365.494-3.64-3.4-5.996-7.634-7.343-12.35-3.192-11.164-3.634-22.532-1.54-33.92.63-3.42 2.263-6.66 3.407-9.906-1.19-1.263-2.787-2.46-3.671-4.056-.67-1.21-.983-3.213-.416-4.33.452-.89 2.454-1.202 3.817-1.364 1.149-.135 2.37.307 3.536.49l6-9.792c-6.61-4.888-9.588-12.012-10.52-20.234-.431-3.842.729-5.09 4.483-4.113 6.09 1.581 11.388 4.54 15.304 9.766Zm9.922-61.454c-6.9 3.895-11.731 8.502-12.974 15.683-1.41 8.138-.998 16.214 2.662 23.863 2.387 4.992 4.83 9.958 7.036 15.033.452 1.04.29 2.652-.198 3.723-.998 2.184-2.433 4.17-3.655 6.256-1.165 1.992-2.455 2.236-4.145.608-1.118-1.076-2.085-2.308-3.12-3.473-3.083-3.474-7.17-5.08-11.502-6.62-.296 7.051 4.02 15.132 9.568 18.367 2.6 1.518 2.517 2.085.76 4.596a89 89 0 0 0-6.152 10.088c-.988 1.91-2.06 2.335-3.9 1.67-1.082-.39-2.19-.713-3.282-1.06l-.343.623 5.47 4.737c4.109-5.86 8.373-12.048 12.756-18.158 5.008-6.984 9.693-14.155 12.418-22.37 4.706-14.197 5.267-28.684 2.267-43.275-.697-3.396-2.33-6.594-3.671-10.286Zm-20.686 148.044-7.046-14.097c.718 5.45 2.933 10.28 7.046 14.097m-8.892-37.81.432.084 2.392-9.51-.666-.146-2.163 9.573Zm331.136-48.692c3.724-5.013 8.69-7.847 14.352-9.584.817-.25 1.685-.395 2.538-.473 2.174-.192 3.28.74 3.073 3.021-.775 8.596-3.494 16.22-10.675 21.513l5.995 9.72c1.31-.14 2.834-.443 4.363-.438 3.188.01 4.534 1.934 3.078 4.81-.977 1.924-2.693 3.473-4.16 5.288 5.86 12.095 5.48 25.038 3.09 38.2-1.176 6.453-3.344 12.35-7.978 17.123-2.324 2.397-4.856 2.168-6.53-.764-.464-.806-.412-2.418.108-3.193 11.518-17.217 12.174-34.923 1.987-52.8-3.755-6.589-8.55-12.59-12.964-18.794-7.13-10.01-12.443-20.8-14.003-33.113-1.482-11.732-1.95-23.494 1.383-35.017.9-3.105 2.62-5.99 4.108-8.903.884-1.73 2.33-2.137 4.144-1.164 9.386 5.033 14.825 12.308 15.273 23.467.4 10.005-2.101 18.975-6.766 27.576a63 63 0 0 0-1.622 3.25q-2.423 5.122 1.2 10.27Zm-9.687-61.38c-1.14 2.656-2.408 4.94-3.11 7.388-2.62 9.095-2.74 18.362-2.111 27.774.775 11.7 4.14 22.453 10.478 32.193 5.938 9.126 12.319 17.966 18.283 26.62l5.533-4.79-.343-.63c-1.103.36-2.21.702-3.307 1.077-1.54.525-3.027.634-3.62-1.248-1.367-4.31-3.78-7.925-6.88-11.16-1.284-1.336-1.174-2.646.568-3.577 5.626-3.02 8.262-8.143 9.79-14.014.376-1.43.464-2.938.755-4.909l-5.096 2.075c-3.806 1.56-6.531 4.404-9.141 7.467-2.304 2.704-3.505 2.45-5.174-.598-1.04-1.893-2.424-3.604-3.34-5.548-.472-1.01-.68-2.507-.285-3.5 1.175-2.964 2.637-5.83 4.113-8.663 4.046-7.78 6.76-15.793 6.412-24.794-.37-9.589-4.623-16.385-13.52-21.169Zm27.6 133.665-7.102 14.295c4.103-3.89 6.303-8.679 7.103-14.295m-.358-33.124-.64.208 2.345 9.32.473-.11-2.173-9.423ZM770.546 607.988c-1.378-2.376-3.25-4.81-4.3-7.56-3.27-8.575.229-18.507 8.065-23.328.796-.489 2.46-.478 3.224.031 10.68 7.14 12.46 21.622 3.786 30.077-.234.23-.4.525-.915 1.217 5.73-1.565 10.836-2.844 13.51-8.596 1.965-4.232 9.744-6.016 14.923-3.822 8.83 3.74 14.607 10.567 18.746 18.965 1.004 2.038-.047 3.22-1.893 4.061-8.715 3.978-19.552 1.633-26.374-5.756-.868-.942-1.695-1.93-2.486-2.834l-6.515 3.244c1.794 3 3.843 5.86 5.278 9.002 1.362 2.974.135 4.42-3.266 4.643-6.141.406-12.064-4.285-13.993-11.21h-4.748c-1.934 6.171-5.798 10.165-12.34 11.106-1.08.156-2.246.005-3.338-.197-1.892-.36-2.537-1.53-2.06-3.438.786-3.135 2.72-6.214 6.257-9.588l-7.088-3.552c-.754.848-1.638 1.872-2.553 2.865-6.78 7.317-17.352 9.646-26.14 5.772-2.58-1.133-3.068-2.23-1.841-4.633 3.91-7.66 9.193-13.993 17.118-17.84 5.008-2.435 9.724-1.92 14.269 1.008a7.1 7.1 0 0 1 2.236 2.46c2.652 4.788 7.228 7.664 12.444 7.903Zm-11.19 15.715c4.732.28 8.315-2.31 10.39-6.974.629-1.414 1.59-3.26 2.834-3.712 4.373-1.592 7.857.171 9.833 4.41 2.043 4.378 6.094 6.874 9.994 6.088a13.16 13.16 0 0 0-5.252-7.17 7.8 7.8 0 0 1-2.106-2.18c-.868-1.414-.785-2.38 1.222-2.994 2.694-.822 5.398-1.888 7.795-3.35 2.943-1.793 3.999-1.934 6.016.838 3.443 4.727 8.03 7.545 13.734 8.56 3.468.618 6.817.192 10.368-1.618-1.918-2.818-3.354-5.808-5.584-7.987-3.115-3.042-6.698-5.658-10.317-8.112-2.595-1.763-5.595-1.399-8.487-.286-2.288.884-3.93 2.173-3.676 4.945.02.25-.312.62-.572.8-4.326 3.048-8.72 6.007-14.232 6.246-1.108.047-2.886-.374-3.245-1.118-.687-1.414-1.3-3.224.4-4.732 7.249-6.438 6.292-17.274-.613-23.65-1.456-1.346-2.44-1.362-3.906-.01-6.92 6.396-7.862 17.222-.63 23.65 1.7 1.513 1.104 3.317.412 4.732-.364.743-2.1 1.045-3.245 1.123a8.8 8.8 0 0 1-3.557-.603c-4.867-1.846-10.186-3.146-11.845-9.189-.135-.499-.75-.967-1.248-1.258-3.235-1.888-6.672-2.673-10.104-.775-2.71 1.498-5.392 3.167-7.743 5.164-3.567 3.026-5.99 6.983-8.205 11.278 3.614 1.482 6.942 2.013 10.462 1.342q8.736-1.659 13.775-8.944c1.342-1.94 2.876-2.096 4.898-1.03 2.725 1.436 5.46 2.97 8.372 3.895 2.252.718 2.387 1.685 1.342 3.307a7.3 7.3 0 0 1-1.986 1.95c-2.606 1.78-4.337 4.15-5.3 7.343Zm28.49 233.521c.75 5.575 1.327 10.821-.524 15.96-1.758 4.877-4.623 8.953-9.272 11.387-1.144.598-3.193.65-4.26.01-6.64-3.962-10.092-9.994-10.43-17.72-.135-3.152-.02-6.309-.02-8.737-4.182 1.248-8.856 3.021-13.698 3.931-2.46.463-5.304-.322-7.81-1.087-2.543-.775-2.922-2.496-1.804-4.945 5.808-12.704 16.432-18.886 29.562-20.992 13.208-2.117 25.13 1.508 34.918 10.66 3.125 2.922 5.174 7.061 7.446 10.81 1.217 2.008.317 3.672-2.158 4.64-4.95 1.928-9.875 1.268-14.674-.558-2.403-.91-4.675-2.147-7.275-3.364Zm-44.85.74c1.826.3 3.24.732 4.655.737 6.848.031 12.402-3.182 17.706-7.124.946-.702 2.428-.676 3.666-.988-.09 1.144.16 2.465-.317 3.411-4.004 7.92-2.777 18.647 3.348 24.96 3.51 3.62 4.192 3.656 7.748-.03 6.11-6.34 7.317-17.05 3.287-24.96-.468-.92-.323-2.154-.458-3.246 1.238.22 2.63.151 3.687.713 3.494 1.856 6.729 4.258 10.327 5.85 3.723 1.648 7.764 2.308 11.783.494-4.79-13.24-19.063-19.828-30.981-19.99-14.846-.197-27.17 5.336-34.435 20.172ZM907.4 690.631c.01 4.8-.26 10.103-3.385 14.492-1.898 2.663-4.488 4.961-7.14 6.916-1.924 1.425-2.927.681-3.48-1.757-1.137-5.034-2.614-10.016-3.306-15.106-1.05-7.728.9-14.924 5.2-21.456q.208-.332.473-.618c4.436-4.545 5.856-4.457 8.268 1.008 2.262 5.128 3.765 10.4 3.375 16.516Zm-10.702 17.732c8.98-5.185 9.522-24.742 3.214-34.019-7.816 6.313-8.174 23.54-3.214 34.02m-252.23-18.196c-.438-6.692 1.502-12.802 4.638-18.606 1.086-2.007 2.568-2.178 4.258-.847 5.393 4.27 7.436 10.28 8.242 16.754.952 7.592-.187 14.96-2.97 22.105-1.361 3.5-2.131 3.906-5.36 1.638-6.094-4.28-8.388-10.53-8.804-17.674-.067-1.118-.01-2.247-.01-3.37Zm10.602 18.127c4.976-9.62 4.742-28.11-3.27-33.873-6.454 10.057-5.326 29.276 3.27 33.873m216.024-50.866c.53 7.046-2.751 12.126-7.748 16.354-2.247 1.903-4.587 3.697-6.844 5.585-3.64 3.047-3.286 6.328.926 8.57 1.066.566 2.205.998 3.312 1.486 5.008 2.231 7.55 6.064 7.774 11.565.234 5.81-1.092 11.154-4.222 16.058a44.7 44.7 0 0 0-6.11 15.626c-1.446 7.472.63 14.4 3.723 21.101 1.342 2.907 2.89 5.72 4.108 8.674 2.283 5.538.37 9.672-5.293 11.716-1.95.702-3.968 1.227-5.934 1.877-2.173.717-3.192 2.168-2.948 4.54.364 3.546 1.529 6.744 3.91 9.427 1.436 1.622 2.954 3.167 4.462 4.722 5.002 5.148 7.14 11.336 6.734 18.454-.328 5.68-6.646 11.758-12.574 11.893-7.82.177-14.575-2.2-19.92-8.258a45.2 45.2 0 0 0-7.634-6.942c-3.1-2.189-4.426-1.768-6.833 1.186a49 49 0 0 0-3.011 4.217c-3.827 5.84-9.521 7.81-15.636 4.503-7.208-3.9-14.633-6.635-22.844-6.93-7.764-.277-15.345.597-22.412 4.153-1.93.973-3.812 2.04-5.777 2.944-5.954 2.735-11.414 1.18-15.153-4.223-1.128-1.633-2.215-3.307-3.474-4.846-2.215-2.715-3.546-3.13-6.437-1.15a38 38 0 0 0-7.337 6.49c-4.285 5.003-9.58 7.76-16.027 8.71-10.847 1.602-18.824-6.64-16.796-17.435a24.6 24.6 0 0 1 6.864-13.136c2.98-3 6.1-5.88 7.353-10.197 1.654-5.704.879-7.316-4.727-8.902-10.02-2.834-11.741-6.464-7.483-15.912 1.493-3.307 3.266-6.5 4.618-9.865 4.514-11.242 2.127-21.767-3.801-31.746-2.954-4.966-4.722-10.119-4.633-15.958.088-6.038 2.63-10.244 8.262-12.558 1.352-.557 2.736-1.15 3.926-1.982 3.027-2.126 3.204-4.893.448-7.342-2.392-2.127-4.904-4.129-7.431-6.09-9.651-7.492-9.547-19.567-4.92-27.887 4.753-8.543 13.75-11.31 22.439-6.557 3.5 1.914 6.422 4.91 9.51 7.53 1.71 1.45 3.079 3.322 4.852 4.67 3.796 2.88 8.018 2.287 11.008-1.446 1.404-1.753 2.548-3.713 3.854-5.544 3.572-5.018 8.746-6.51 14.362-3.936 3.058 1.404 5.845 3.437 8.954 4.685 3.157 1.264 6.516 2.33 9.875 2.715 4.264.483 8.61.171 12.927.24 5.46.087 10.348-1.613 14.945-4.468a46 46 0 0 1 6.672-3.453c5.1-2.1 10.062-.64 13.333 3.786 1.133 1.53 2.116 3.167 3.213 4.721 3.9 5.544 8.845 5.975 13.76 1.233 2.984-2.88 5.829-5.944 9.02-8.575 4.42-3.64 9.658-5.08 15.33-3.983 7.047 1.362 13.02 9.126 13.479 17.191.052.952.006 1.903.006 2.694Zm-3.178-.037c-.202-1.456-.327-2.922-.624-4.357-2.475-11.856-13.691-16.047-23.067-8.48-3.22 2.593-5.985 5.75-9.011 8.584-5.934 5.56-13.35 4.898-18.2-1.623-1.238-1.664-2.294-3.468-3.51-5.148-2.3-3.182-5.736-4.248-9.37-2.76a44 44 0 0 0-6.002 3.062c-4.758 2.865-9.76 4.81-15.412 4.748-5.086-.058-10.203.286-15.242-.203-3.53-.343-7.056-1.524-10.39-2.829-3.202-1.253-6.078-3.307-9.234-4.71-3.703-1.65-7.24-.52-9.59 2.755-1.263 1.757-2.365 3.63-3.67 5.356-1.878 2.485-4.223 4.295-7.41 4.857-4.43.78-7.93-.91-11.024-3.906-3.042-2.948-5.954-6.073-9.246-8.715-5.902-4.742-13.894-4.253-18.294.785-6.926 7.94-6.047 19.428 2.013 26.151 2.595 2.163 5.309 4.191 7.795 6.47 4.232 3.868 3.92 9.271-.77 12.6-1.742 1.231-3.822 1.985-5.751 2.952-3.125 1.57-4.753 3.994-4.987 7.587-.36 5.486 1.014 10.384 3.864 15.054 8.48 13.89 9.037 28.018.982 42.344a45 45 0 0 0-2.808 6.13c-1.232 3.235-.27 5.356 2.97 6.594 2.017.77 4.15 1.222 6.188 1.934 4.217 1.477 5.865 4.467 5.356 8.882-.692 5.96-3.843 10.473-8.055 14.404a22.26 22.26 0 0 0-7.072 13.51c-.874 5.928 3.785 12.298 9.812 12.256 5.606-.042 11.003-1.435 15.1-5.788 1.545-1.638 2.892-3.51 4.624-4.914 2.387-1.94 4.898-3.853 7.644-5.2 2.99-1.47 5.954-.785 8.127 1.976a135 135 0 0 1 4.327 5.824c2.886 4.103 6.484 5.164 10.95 3.136 1.337-.608 2.71-1.175 3.963-1.93 8.898-5.33 18.658-5.745 28.616-5.158 7.696.453 14.55 3.328 21.242 6.963 4.456 2.423 8.206 1.14 11.123-3.083a227 227 0 0 1 3.312-4.639c3.53-4.857 7.43-4.57 12.002-1.778 1.893 1.16 3.536 2.766 5.174 4.295 1.326 1.238 2.496 2.647 3.697 4.01 4.103 4.648 9.62 6.125 15.418 6.307 5.928.187 10.873-6.256 10.03-12.106a22.57 22.57 0 0 0-7.165-13.749c-4.144-3.863-7.27-8.288-7.971-14.164-.562-4.722 1.08-7.634 5.642-9.158 1.72-.572 3.5-.988 5.215-1.58 3.963-1.368 5.034-3.588 3.422-7.405-1.144-2.704-2.527-5.31-3.817-7.956-2.652-5.429-4.378-11.097-4.524-17.18-.203-8.337 2.522-15.845 6.76-22.834 2.834-4.68 4.202-9.584 3.817-15.07-.245-3.484-1.8-5.886-4.82-7.425-1.54-.786-3.193-1.358-4.696-2.2-5.86-3.27-6.563-9.443-1.555-13.853 2.47-2.173 5.1-4.16 7.618-6.276 4.129-3.474 6.48-7.82 6.49-13.349Z"/><rect width="258.732" height="74.58" x="243.597" y="333.712" fill="none" rx="0" ry="0" transform="translate(400.72 627.83)"/><path fill="#e7e7e7" d="m667.803 999.772-6.02-18.33q-.13 4.7-.13 9.73 0 6.86.22 14.79.23 7.93.34 9.01t.31 1.89q.35 1.48 1.16 2.7h-8.99q1.22-1.74 1.46-3.74.24-1.99.37-3.86.26-3.81.26-10.22 0-7.77-.26-14.18l-.35-8.86q-.19-4.9-1.58-6.96-.52-.78-1.32-1.48h12.6q1.26 5.51 3.13 11.69l5.86 18.73 8.99-30.42h12.57q-1.58 1.38-2.06 2.83-.71 2.23-.81 5.16l-.22 5.7q-.42 10.02-.42 17.79 0 13.02 1.19 16.53.23.65.58 1.29h-10.15q.87-1.71.98-3.69t.21-5.46q.39-11.44.39-16.66 0-8.61-.16-12.8l-11.86 38.61Zm65.2 19.79h-11.24q.42-2.03.42-3.24t-.05-1.82-.13-1.3q-.08-.7-.2-1.55-.11-.85-.2-1.98-.75-7.7-5.26-12.67-2-2.19-4.32-3.33-2.32-1.15-3.81-1.15-1.5 0-2.31.2-1.8 5.41-1.8 11.31 0 5.22.54 7.8.87 3.86 2.68 7.76h-9.64q.78-1.93.78-8.13 0-6.21.93-11.6.94-5.4 2.43-9.62 1.5-4.23 3.36-7.4 1.85-3.17 3.7-5.54t3.5-4.06q1.64-1.7 2.74-2.98h10.15q-1.39 1.57-1.39 4.41 0 1.29.42 4.22l.81 5.87q4.41 30.42 7.89 34.8m-25.78-30.26q1.26-.48 2.64-.48 1.39 0 2.5.19t2.21.65q2.35.9 3.93 2.86l-1.93-10.12-1.13-5.63-1.84 2.19q-3.86 4.64-6.38 10.34m24.01-4.54q-.78-1.87-.78-4.42 0-2.54.2-4.17.19-1.63.51-2.95.78-2.96 1.9-2.96h28.4q1.86 0 2.51 5.54.16 1.55.16 3.19 0 3.87-.84 5.77-2.77-8.61-7.18-11.02-1-.58-1.97-.58t-1.51.5q-.55.49-.91 1.59-.58 1.93-.58 4.64v12.09l.04 9.86v9.34q0 3.16.82 4.66t1.67 2.27q.86.78 2.02 1.45h-16.47q2.32-1.9 2.96-3.12 1.2-2.23 1.2-5.26v-29.03q0-5.06-.39-6.53t-.93-1.96q-.55-.5-1.52-.5t-1.97.56q-.99.56-1.94 1.48-.96.92-1.81 2.13t-1.56 2.5q-1.39 2.54-2.03 4.93m57.87 15.63-.03-8.83q0-1.81-.58-2.45-1.06-1.19-3.93-1.19h-5.09q-4 0-4.39 2.25-.09.65-.09 1.39l-.03 9.67q0 12.5 1.28 15.66.52 1.22 1.62 2.67h-12.09q1.03-2.45 1.21-4.09t.37-4.06q.35-5.06.35-11.57t-.03-8.98l-.06-4.81q-.23-9.77-.61-11.72-.39-1.95-.65-2.62l-.58-1.45h12.09q-2.32 2.57-2.58 6.96-.1 1.32-.1 2.77t.27 2.27q.28.82.92 1.21.87.58 4.1.58h3.06q3.28 0 4.06-.48 1.29-.84 1.29-3.65 0-6.86-2.71-9.66h12.08q-.96 2.12-1.17 3.93-.21 1.8-.31 3.46-.09 1.66-.19 3.85t-.16 4.55q-.1 5.47-.1 9.92 0 18.08 1.35 22.14.23.68.58 1.45h-12.08q1.61-2.16 1.97-3.72.35-1.56.54-3.69.42-4.09.42-11.76m39.28 7.25q.87 1.19.87 3.45 0 2.25-.19 3.59t-.61 2.43q-.97 2.45-2.55 2.45h-26.1q2.48-1.32 3.29-2.54 1.51-2.29 1.51-5.8-.03-8.61-.03-15.57v-16.95q0-4.8-1.52-6.96-.58-.78-1.38-1.48h24.23q2.19.77 3 5.41.22 1.29.22 2.51 0 2.52-.74 4l-1.74-3.48q-1.74-3.42-4.99-4.58-1.81-.64-4.06-.64-2.26 0-3.23.14-.96.15-1.48.7-.84.93-.84 3.56 0 2.62.13 3.64.13 1.01.62 1.66.99 1.26 4.22 1.26h10.12q-.74 1.86-1.52 2.64-1.55 1.54-4.19 1.54-1.03 0-1.96-.22-1.74-.42-3.07-.42-1.32 0-2.17.24t-1.34.76q-.84.9-.84 3.25v15.38q0 6.05.68 7.18t1.64 1.34q.97.21 3.23.21 2.25 0 4.09-.65 1.84-.64 3.08-1.8t2.04-2.76q.81-1.59 1.58-3.49m28.62-4.61.16-12.38q0-12.98-.97-16.59-.45-1.74-1.08-2.55-.63-.8-1.01-1.25h10.57l-.68.9q-1.45 2.12-1.61 4.8-.16 2.67-.24 5.41t-.15 5.45q-.06 4.54-.06 10.15v3.93q0 10.41-3.35 14.92-3.32 4.39-10.83 4.39-14.54 0-14.47-18.66l.03-24.14q0-5.09-1.8-7.15h12.21q-1.9 2.28-1.9 6.51 0 2.44-.03 5.02l-.13 10.32q-.04 2.54-.04 5.25 0 9.7.58 12.29.58 2.6 1.42 4.05 1.94 3.28 5.74 3.28 5.86 0 7.22-8.57.42-2.54.42-5.38m17.71-.55q-.42 3.35-.42 5.34 0 1.98.48 3.65.49 1.68 1.39 2.9 1.93 2.61 4.9 2.61 5.67 0 5.67-6.25 0-5.03-5.83-10.66l-3.36-3.26q-4.41-4.25-6.02-6.83-3.19-5.09-3.19-10.12 0-4.09 2.64-6.87 3.19-3.38 9.18-3.38 2.36 0 3.55.23 2.22.42 2.96.42 1.87 0 2.9-1.16.39-.42.84-1.1 2.35 1.32 2.35 9.7 0 5.35-1.06 7.9-.35.87-.8 1.09-.52-4.87-3.16-8.7-3.1-4.51-7.16-4.51-3.48 0-4.28 3.19-.23.9-.23 2.24t.81 3.04q.8 1.71 2.11 3.4 1.3 1.7 3.01 3.4 5.16 5.29 6.85 7.16t3.01 3.86q2.9 4.48 2.9 8.67 0 5.06-3.93 8.38-4.06 3.39-10.44 3.39-5.29 0-9.09-2.65-4.19-2.9-4.19-7.67 1.26-4.48 5.48-6.57 1.13-.58 2.13-.84"/><rect width="79.443" height="117.52" x="333.242" y="312.242" fill="none" rx="0" ry="0" transform="translate(400.72 363.53)"/><path fill="none" stroke="#e7e7e7" stroke-width="2.79" d="m764.063 736.922-9.49-28.89q-.21 7.41-.21 15.33 0 10.82.36 23.31t.53 14.2q.18 1.7.49 2.97.55 2.33 1.82 4.26h-14.16q1.93-2.74 2.31-5.89t.58-6.09q.41-5.99.41-16.1 0-12.24-.41-22.34l-.56-13.97q-.3-7.72-2.49-10.97-.81-1.22-2.08-2.33h19.86q1.98 8.68 4.92 18.43l9.24 29.5 14.17-47.93h19.81q-2.49 2.18-3.25 4.47-1.12 3.5-1.27 8.12l-.36 8.99q-.66 15.79-.66 28.03 0 20.52 1.88 26.05.36 1.02.92 2.03h-16q1.37-2.69 1.55-5.81.18-3.13.33-8.61.61-18.03.61-26.25 0-13.56-.26-20.16l-18.68 60.83Z"/></g><path fill="transparent" stroke="transparent" stroke-width="1.795" d="M328.995 250h842.01v1000h-842.01z"/></g></svg>